<?xml version="1.0" encoding="UTF-8" standalone="no"?>
<!DOCTYPE svg PUBLIC "-//W3C//DTD SVG 1.1//EN"
 "http://www.w3.org/Graphics/SVG/1.1/DTD/svg11.dtd">
<!-- Generated by graphviz version 3.0.0 (20220226.1711)
 -->
<!-- Title: dependencies Pages: 1 -->
<svg width="4480pt" height="247pt"
 viewBox="0.00 0.00 4480.00 246.80" xmlns="http://www.w3.org/2000/svg" xmlns:xlink="http://www.w3.org/1999/xlink">
<g id="graph0" class="graph" transform="scale(1 1) rotate(0) translate(4 242.8)">
<title>dependencies</title>
<polygon fill="white" stroke="transparent" points="-4,4 -4,-242.8 4476,-242.8 4476,4 -4,4"/>
<text text-anchor="middle" x="2236" y="-8.2" font-family="sans-serif" font-size="14.00">dependencies</text>
<g id="clust1" class="cluster">
<title>cluster_AppModule</title>
<polygon fill="none" stroke="black" stroke-dasharray="1,5" points="8,-32.8 8,-230.8 4464,-230.8 4464,-32.8 8,-32.8"/>
</g>
<g id="clust23" class="cluster">
<title>cluster_AppModule_imports</title>
<polygon fill="none" stroke="black" points="4312,-40.8 4312,-92.8 4456,-92.8 4456,-40.8 4312,-40.8"/>
</g>
<g id="clust25" class="cluster">
<title>cluster_AppModule_bootstrap</title>
<polygon fill="none" stroke="black" points="2344,-170.8 2344,-222.8 2468,-222.8 2468,-170.8 2344,-170.8"/>
</g>
<g id="clust2" class="cluster">
<title>cluster_AppModule_declarations</title>
<polygon fill="none" stroke="black" points="16,-40.8 16,-92.8 4304,-92.8 4304,-40.8 16,-40.8"/>
</g>
<!-- AboutUsComponent -->
<g id="node1" class="node">
<title>AboutUsComponent</title>
<polygon fill="#ffffb3" stroke="black" points="4295.89,-84.8 4164.11,-84.8 4164.11,-48.8 4295.89,-48.8 4295.89,-84.8"/>
<text text-anchor="middle" x="4230" y="-62.6" font-family="Times,serif" font-size="14.00">AboutUsComponent</text>
</g>
<!-- AppModule -->
<g id="node21" class="node">
<title>AppModule</title>
<polygon fill="#8dd3c7" stroke="black" points="2447.66,-149.8 2444.66,-153.8 2423.66,-153.8 2420.66,-149.8 2364.34,-149.8 2364.34,-113.8 2447.66,-113.8 2447.66,-149.8"/>
<text text-anchor="middle" x="2406" y="-127.6" font-family="Times,serif" font-size="14.00">AppModule</text>
</g>
<!-- AboutUsComponent&#45;&gt;AppModule -->
<g id="edge1" class="edge">
<title>AboutUsComponent&#45;&gt;AppModule</title>
<path fill="none" stroke="black" d="M4230,-85.05C4230,-107.82 4230,-143.8 4230,-143.8 4230,-143.8 2457.96,-143.8 2457.96,-143.8"/>
<polygon fill="black" stroke="black" points="2457.96,-140.3 2447.96,-143.8 2457.96,-147.3 2457.96,-140.3"/>
</g>
<!-- AdminAddDoctorComponent -->
<g id="node2" class="node">
<title>AdminAddDoctorComponent</title>
<polygon fill="#ffffb3" stroke="black" points="4145.71,-84.8 3962.29,-84.8 3962.29,-48.8 4145.71,-48.8 4145.71,-84.8"/>
<text text-anchor="middle" x="4054" y="-62.6" font-family="Times,serif" font-size="14.00">AdminAddDoctorComponent</text>
</g>
<!-- AdminAddDoctorComponent&#45;&gt;AppModule -->
<g id="edge2" class="edge">
<title>AdminAddDoctorComponent&#45;&gt;AppModule</title>
<path fill="none" stroke="black" d="M4054,-85.09C4054,-107.01 4054,-140.8 4054,-140.8 4054,-140.8 2457.98,-140.8 2457.98,-140.8"/>
<polygon fill="black" stroke="black" points="2457.98,-137.3 2447.98,-140.8 2457.98,-144.3 2457.98,-137.3"/>
</g>
<!-- AdminAddReceptionistComponent -->
<g id="node3" class="node">
<title>AdminAddReceptionistComponent</title>
<polygon fill="#ffffb3" stroke="black" points="3944.32,-84.8 3729.68,-84.8 3729.68,-48.8 3944.32,-48.8 3944.32,-84.8"/>
<text text-anchor="middle" x="3837" y="-62.6" font-family="Times,serif" font-size="14.00">AdminAddReceptionistComponent</text>
</g>
<!-- AdminAddReceptionistComponent&#45;&gt;AppModule -->
<g id="edge3" class="edge">
<title>AdminAddReceptionistComponent&#45;&gt;AppModule</title>
<path fill="none" stroke="black" d="M3837,-84.83C3837,-105.57 3837,-136.8 3837,-136.8 3837,-136.8 2457.67,-136.8 2457.67,-136.8"/>
<polygon fill="black" stroke="black" points="2457.67,-133.3 2447.67,-136.8 2457.67,-140.3 2457.67,-133.3"/>
</g>
<!-- AdminAllDoctorsComponent -->
<g id="node4" class="node">
<title>AdminAllDoctorsComponent</title>
<polygon fill="#ffffb3" stroke="black" points="3712.44,-84.8 3529.56,-84.8 3529.56,-48.8 3712.44,-48.8 3712.44,-84.8"/>
<text text-anchor="middle" x="3621" y="-62.6" font-family="Times,serif" font-size="14.00">AdminAllDoctorsComponent</text>
</g>
<!-- AdminAllDoctorsComponent&#45;&gt;AppModule -->
<g id="edge4" class="edge">
<title>AdminAllDoctorsComponent&#45;&gt;AppModule</title>
<path fill="none" stroke="black" d="M3621,-85.11C3621,-104.95 3621,-133.8 3621,-133.8 3621,-133.8 2457.82,-133.8 2457.82,-133.8"/>
<polygon fill="black" stroke="black" points="2457.82,-130.3 2447.82,-133.8 2457.82,-137.3 2457.82,-130.3"/>
</g>
<!-- AdminAllReceptionistsComponent -->
<g id="node5" class="node">
<title>AdminAllReceptionistsComponent</title>
<polygon fill="#ffffb3" stroke="black" points="3511.55,-84.8 3298.45,-84.8 3298.45,-48.8 3511.55,-48.8 3511.55,-84.8"/>
<text text-anchor="middle" x="3405" y="-62.6" font-family="Times,serif" font-size="14.00">AdminAllReceptionistsComponent</text>
</g>
<!-- AdminAllReceptionistsComponent&#45;&gt;AppModule -->
<g id="edge5" class="edge">
<title>AdminAllReceptionistsComponent&#45;&gt;AppModule</title>
<path fill="none" stroke="black" d="M3405,-84.97C3405,-103.89 3405,-130.8 3405,-130.8 3405,-130.8 2457.97,-130.8 2457.97,-130.8"/>
<polygon fill="black" stroke="black" points="2457.97,-127.3 2447.97,-130.8 2457.97,-134.3 2457.97,-127.3"/>
</g>
<!-- AppComponent -->
<g id="node6" class="node">
<title>AppComponent</title>
<polygon fill="#ffffb3" stroke="black" points="3280.94,-84.8 3175.06,-84.8 3175.06,-48.8 3280.94,-48.8 3280.94,-84.8"/>
<text text-anchor="middle" x="3228" y="-62.6" font-family="Times,serif" font-size="14.00">AppComponent</text>
</g>
<!-- AppComponent&#45;&gt;AppModule -->
<g id="edge6" class="edge">
<title>AppComponent&#45;&gt;AppModule</title>
<path fill="none" stroke="black" d="M3228,-85.1C3228,-103.07 3228,-127.8 3228,-127.8 3228,-127.8 2457.89,-127.8 2457.89,-127.8"/>
<polygon fill="black" stroke="black" points="2457.89,-124.3 2447.89,-127.8 2457.89,-131.3 2457.89,-124.3"/>
</g>
<!-- DoctorAppointmentsComponent -->
<g id="node7" class="node">
<title>DoctorAppointmentsComponent</title>
<polygon fill="#ffffb3" stroke="black" points="3157.54,-84.8 2958.46,-84.8 2958.46,-48.8 3157.54,-48.8 3157.54,-84.8"/>
<text text-anchor="middle" x="3058" y="-62.6" font-family="Times,serif" font-size="14.00">DoctorAppointmentsComponent</text>
</g>
<!-- DoctorAppointmentsComponent&#45;&gt;AppModule -->
<g id="edge7" class="edge">
<title>DoctorAppointmentsComponent&#45;&gt;AppModule</title>
<path fill="none" stroke="black" d="M3058,-84.84C3058,-101.53 3058,-123.8 3058,-123.8 3058,-123.8 2457.78,-123.8 2457.78,-123.8"/>
<polygon fill="black" stroke="black" points="2457.78,-120.3 2447.78,-123.8 2457.78,-127.3 2457.78,-120.3"/>
</g>
<!-- DoctorMakePrescriptionComponent -->
<g id="node8" class="node">
<title>DoctorMakePrescriptionComponent</title>
<polygon fill="#ffffb3" stroke="black" points="2939.74,-84.8 2720.26,-84.8 2720.26,-48.8 2939.74,-48.8 2939.74,-84.8"/>
<text text-anchor="middle" x="2830" y="-62.6" font-family="Times,serif" font-size="14.00">DoctorMakePrescriptionComponent</text>
</g>
<!-- DoctorMakePrescriptionComponent&#45;&gt;AppModule -->
<g id="edge8" class="edge">
<title>DoctorMakePrescriptionComponent&#45;&gt;AppModule</title>
<path fill="none" stroke="black" d="M2830,-85.08C2830,-100.75 2830,-120.8 2830,-120.8 2830,-120.8 2457.82,-120.8 2457.82,-120.8"/>
<polygon fill="black" stroke="black" points="2457.82,-117.3 2447.82,-120.8 2457.82,-124.3 2457.82,-117.3"/>
</g>
<!-- DoctorPatientDetailsComponent -->
<g id="node9" class="node">
<title>DoctorPatientDetailsComponent</title>
<polygon fill="#ffffb3" stroke="black" points="2702.25,-84.8 2503.75,-84.8 2503.75,-48.8 2702.25,-48.8 2702.25,-84.8"/>
<text text-anchor="middle" x="2603" y="-62.6" font-family="Times,serif" font-size="14.00">DoctorPatientDetailsComponent</text>
</g>
<!-- DoctorPatientDetailsComponent&#45;&gt;AppModule -->
<g id="edge9" class="edge">
<title>DoctorPatientDetailsComponent&#45;&gt;AppModule</title>
<path fill="none" stroke="black" d="M2603,-84.92C2603,-99.58 2603,-117.8 2603,-117.8 2603,-117.8 2457.78,-117.8 2457.78,-117.8"/>
<polygon fill="black" stroke="black" points="2457.78,-114.3 2447.78,-117.8 2457.78,-121.3 2457.78,-114.3"/>
</g>
<!-- DoctorProfileComponent -->
<g id="node10" class="node">
<title>DoctorProfileComponent</title>
<polygon fill="#ffffb3" stroke="black" points="2485.31,-84.8 2326.69,-84.8 2326.69,-48.8 2485.31,-48.8 2485.31,-84.8"/>
<text text-anchor="middle" x="2406" y="-62.6" font-family="Times,serif" font-size="14.00">DoctorProfileComponent</text>
</g>
<!-- DoctorProfileComponent&#45;&gt;AppModule -->
<g id="edge10" class="edge">
<title>DoctorProfileComponent&#45;&gt;AppModule</title>
<path fill="none" stroke="black" d="M2406,-84.91C2406,-84.91 2406,-103.79 2406,-103.79"/>
<polygon fill="black" stroke="black" points="2402.5,-103.79 2406,-113.79 2409.5,-103.79 2402.5,-103.79"/>
</g>
<!-- DoctorSearchPatientComponent -->
<g id="node11" class="node">
<title>DoctorSearchPatientComponent</title>
<polygon fill="#ffffb3" stroke="black" points="2308.68,-84.8 2111.32,-84.8 2111.32,-48.8 2308.68,-48.8 2308.68,-84.8"/>
<text text-anchor="middle" x="2210" y="-62.6" font-family="Times,serif" font-size="14.00">DoctorSearchPatientComponent</text>
</g>
<!-- DoctorSearchPatientComponent&#45;&gt;AppModule -->
<g id="edge11" class="edge">
<title>DoctorSearchPatientComponent&#45;&gt;AppModule</title>
<path fill="none" stroke="black" d="M2210,-84.92C2210,-99.58 2210,-117.8 2210,-117.8 2210,-117.8 2353.95,-117.8 2353.95,-117.8"/>
<polygon fill="black" stroke="black" points="2353.95,-121.3 2363.95,-117.8 2353.95,-114.3 2353.95,-121.3"/>
</g>
<!-- DoctorViewPrescriptionComponent -->
<g id="node12" class="node">
<title>DoctorViewPrescriptionComponent</title>
<polygon fill="#ffffb3" stroke="black" points="2093.19,-84.8 1874.81,-84.8 1874.81,-48.8 2093.19,-48.8 2093.19,-84.8"/>
<text text-anchor="middle" x="1984" y="-62.6" font-family="Times,serif" font-size="14.00">DoctorViewPrescriptionComponent</text>
</g>
<!-- DoctorViewPrescriptionComponent&#45;&gt;AppModule -->
<g id="edge12" class="edge">
<title>DoctorViewPrescriptionComponent&#45;&gt;AppModule</title>
<path fill="none" stroke="black" d="M1984,-85.08C1984,-100.75 1984,-120.8 1984,-120.8 1984,-120.8 2353.99,-120.8 2353.99,-120.8"/>
<polygon fill="black" stroke="black" points="2353.99,-124.3 2363.99,-120.8 2353.99,-117.3 2353.99,-124.3"/>
</g>
<!-- LoginComponent -->
<g id="node13" class="node">
<title>LoginComponent</title>
<polygon fill="#ffffb3" stroke="black" points="1857.27,-84.8 1742.73,-84.8 1742.73,-48.8 1857.27,-48.8 1857.27,-84.8"/>
<text text-anchor="middle" x="1800" y="-62.6" font-family="Times,serif" font-size="14.00">LoginComponent</text>
</g>
<!-- LoginComponent&#45;&gt;AppModule -->
<g id="edge13" class="edge">
<title>LoginComponent&#45;&gt;AppModule</title>
<path fill="none" stroke="black" d="M1800,-84.84C1800,-101.53 1800,-123.8 1800,-123.8 1800,-123.8 2353.87,-123.8 2353.87,-123.8"/>
<polygon fill="black" stroke="black" points="2353.87,-127.3 2363.87,-123.8 2353.87,-120.3 2353.87,-127.3"/>
</g>
<!-- ReceptionistAddPatientComponent -->
<g id="node14" class="node">
<title>ReceptionistAddPatientComponent</title>
<polygon fill="#ffffb3" stroke="black" points="1724.31,-84.8 1509.69,-84.8 1509.69,-48.8 1724.31,-48.8 1724.31,-84.8"/>
<text text-anchor="middle" x="1617" y="-62.6" font-family="Times,serif" font-size="14.00">ReceptionistAddPatientComponent</text>
</g>
<!-- ReceptionistAddPatientComponent&#45;&gt;AppModule -->
<g id="edge14" class="edge">
<title>ReceptionistAddPatientComponent&#45;&gt;AppModule</title>
<path fill="none" stroke="black" d="M1617,-85.1C1617,-103.07 1617,-127.8 1617,-127.8 1617,-127.8 2354.14,-127.8 2354.14,-127.8"/>
<polygon fill="black" stroke="black" points="2354.14,-131.3 2364.14,-127.8 2354.14,-124.3 2354.14,-131.3"/>
</g>
<!-- ReceptionistAppointmentsComponent -->
<g id="node15" class="node">
<title>ReceptionistAppointmentsComponent</title>
<polygon fill="#ffffb3" stroke="black" points="1492.15,-84.8 1261.85,-84.8 1261.85,-48.8 1492.15,-48.8 1492.15,-84.8"/>
<text text-anchor="middle" x="1377" y="-62.6" font-family="Times,serif" font-size="14.00">ReceptionistAppointmentsComponent</text>
</g>
<!-- ReceptionistAppointmentsComponent&#45;&gt;AppModule -->
<g id="edge15" class="edge">
<title>ReceptionistAppointmentsComponent&#45;&gt;AppModule</title>
<path fill="none" stroke="black" d="M1377,-84.97C1377,-103.89 1377,-130.8 1377,-130.8 1377,-130.8 2354.07,-130.8 2354.07,-130.8"/>
<polygon fill="black" stroke="black" points="2354.07,-134.3 2364.07,-130.8 2354.07,-127.3 2354.07,-134.3"/>
</g>
<!-- ReceptionistPrescriptionComponent -->
<g id="node16" class="node">
<title>ReceptionistPrescriptionComponent</title>
<polygon fill="#ffffb3" stroke="black" points="1243.47,-84.8 1024.53,-84.8 1024.53,-48.8 1243.47,-48.8 1243.47,-84.8"/>
<text text-anchor="middle" x="1134" y="-62.6" font-family="Times,serif" font-size="14.00">ReceptionistPrescriptionComponent</text>
</g>
<!-- ReceptionistPrescriptionComponent&#45;&gt;AppModule -->
<g id="edge16" class="edge">
<title>ReceptionistPrescriptionComponent&#45;&gt;AppModule</title>
<path fill="none" stroke="black" d="M1134,-85.11C1134,-104.95 1134,-133.8 1134,-133.8 1134,-133.8 2354.04,-133.8 2354.04,-133.8"/>
<polygon fill="black" stroke="black" points="2354.04,-137.3 2364.04,-133.8 2354.04,-130.3 2354.04,-137.3"/>
</g>
<!-- ReceptionistProfileComponent -->
<g id="node17" class="node">
<title>ReceptionistProfileComponent</title>
<polygon fill="#ffffb3" stroke="black" points="1006.92,-84.8 817.08,-84.8 817.08,-48.8 1006.92,-48.8 1006.92,-84.8"/>
<text text-anchor="middle" x="912" y="-62.6" font-family="Times,serif" font-size="14.00">ReceptionistProfileComponent</text>
</g>
<!-- ReceptionistProfileComponent&#45;&gt;AppModule -->
<g id="edge17" class="edge">
<title>ReceptionistProfileComponent&#45;&gt;AppModule</title>
<path fill="none" stroke="black" d="M912,-84.83C912,-105.57 912,-136.8 912,-136.8 912,-136.8 2354.09,-136.8 2354.09,-136.8"/>
<polygon fill="black" stroke="black" points="2354.09,-140.3 2364.09,-136.8 2354.09,-133.3 2354.09,-140.3"/>
</g>
<!-- ReceptionistSearchDoctorComponent -->
<g id="node18" class="node">
<title>ReceptionistSearchDoctorComponent</title>
<polygon fill="#ffffb3" stroke="black" points="799.28,-84.8 570.72,-84.8 570.72,-48.8 799.28,-48.8 799.28,-84.8"/>
<text text-anchor="middle" x="685" y="-62.6" font-family="Times,serif" font-size="14.00">ReceptionistSearchDoctorComponent</text>
</g>
<!-- ReceptionistSearchDoctorComponent&#45;&gt;AppModule -->
<g id="edge18" class="edge">
<title>ReceptionistSearchDoctorComponent&#45;&gt;AppModule</title>
<path fill="none" stroke="black" d="M685,-85.09C685,-107.01 685,-140.8 685,-140.8 685,-140.8 2354.31,-140.8 2354.31,-140.8"/>
<polygon fill="black" stroke="black" points="2354.31,-144.3 2364.31,-140.8 2354.31,-137.3 2354.31,-144.3"/>
</g>
<!-- ReceptionistSearchPrescriptionComponent -->
<g id="node19" class="node">
<title>ReceptionistSearchPrescriptionComponent</title>
<polygon fill="#ffffb3" stroke="black" points="552.56,-84.8 295.44,-84.8 295.44,-48.8 552.56,-48.8 552.56,-84.8"/>
<text text-anchor="middle" x="424" y="-62.6" font-family="Times,serif" font-size="14.00">ReceptionistSearchPrescriptionComponent</text>
</g>
<!-- ReceptionistSearchPrescriptionComponent&#45;&gt;AppModule -->
<g id="edge19" class="edge">
<title>ReceptionistSearchPrescriptionComponent&#45;&gt;AppModule</title>
<path fill="none" stroke="black" d="M424,-85.05C424,-107.82 424,-143.8 424,-143.8 424,-143.8 2354.15,-143.8 2354.15,-143.8"/>
<polygon fill="black" stroke="black" points="2354.15,-147.3 2364.15,-143.8 2354.15,-140.3 2354.15,-147.3"/>
</g>
<!-- ReceptionistTakeAppointmentComponent -->
<g id="node20" class="node">
<title>ReceptionistTakeAppointmentComponent</title>
<polygon fill="#ffffb3" stroke="black" points="277.68,-84.8 24.32,-84.8 24.32,-48.8 277.68,-48.8 277.68,-84.8"/>
<text text-anchor="middle" x="151" y="-62.6" font-family="Times,serif" font-size="14.00">ReceptionistTakeAppointmentComponent</text>
</g>
<!-- ReceptionistTakeAppointmentComponent&#45;&gt;AppModule -->
<g id="edge20" class="edge">
<title>ReceptionistTakeAppointmentComponent&#45;&gt;AppModule</title>
<path fill="none" stroke="black" d="M151,-84.95C151,-108.56 151,-146.8 151,-146.8 151,-146.8 2353.96,-146.8 2353.96,-146.8"/>
<polygon fill="black" stroke="black" points="2353.96,-150.3 2363.96,-146.8 2353.96,-143.3 2353.96,-150.3"/>
</g>
<!-- AppComponent  -->
<g id="node23" class="node">
<title>AppComponent </title>
<polygon fill="#80b1d3" stroke="black" points="2460.44,-214.8 2351.56,-214.8 2351.56,-178.8 2460.44,-178.8 2460.44,-214.8"/>
<text text-anchor="middle" x="2406" y="-192.6" font-family="Times,serif" font-size="14.00">AppComponent </text>
</g>
<!-- AppModule&#45;&gt;AppComponent  -->
<g id="edge22" class="edge">
<title>AppModule&#45;&gt;AppComponent </title>
<path fill="none" stroke="black" stroke-dasharray="1,5" d="M2406,-149.91C2406,-149.91 2406,-168.79 2406,-168.79"/>
<polygon fill="black" stroke="black" points="2402.5,-168.79 2406,-178.79 2409.5,-168.79 2402.5,-168.79"/>
</g>
<!-- AppRoutingModule -->
<g id="node22" class="node">
<title>AppRoutingModule</title>
<polygon fill="#8dd3c7" stroke="black" points="4448.28,-84.8 4445.28,-88.8 4424.28,-88.8 4421.28,-84.8 4319.72,-84.8 4319.72,-48.8 4448.28,-48.8 4448.28,-84.8"/>
<text text-anchor="middle" x="4384" y="-62.6" font-family="Times,serif" font-size="14.00">AppRoutingModule</text>
</g>
<!-- AppRoutingModule&#45;&gt;AppModule -->
<g id="edge21" class="edge">
<title>AppRoutingModule&#45;&gt;AppModule</title>
<path fill="none" stroke="black" d="M4384,-84.95C4384,-108.56 4384,-146.8 4384,-146.8 4384,-146.8 2457.77,-146.8 2457.77,-146.8"/>
<polygon fill="black" stroke="black" points="2457.77,-143.3 2447.77,-146.8 2457.77,-150.3 2457.77,-143.3"/>
</g>
</g>
</svg>
